<?xml version="1.0" standalone="no"?>
<!DOCTYPE svg PUBLIC "-//W3C//DTD SVG 20010904//EN"
 "http://www.w3.org/TR/2001/REC-SVG-20010904/DTD/svg10.dtd">
<svg version="1.0" xmlns="http://www.w3.org/2000/svg"
 width="300.000000pt" height="194.000000pt" viewBox="0 0 300.000000 194.000000"
 preserveAspectRatio="xMidYMid meet">
<metadata>
Created by potrace 1.10, written by Peter Selinger 2001-2011
</metadata>
<g transform="translate(0.000000,194.000000) scale(0.100000,-0.100000)"
fill="#000000" stroke="none">
<path d="M1660 1571 c1 -3 54 -78 120 -166 116 -156 118 -160 100 -180 -26
-29 -240 -315 -240 -321 0 -3 12 -4 27 -2 22 2 45 26 110 113 46 61 95 129
111 152 15 24 31 42 35 40 5 -1 59 -70 121 -152 90 -122 117 -151 139 -153 15
-2 27 -1 27 1 0 3 -56 80 -125 173 -69 92 -125 171 -125 175 0 6 166 234 223
307 7 9 2 12 -19 12 -26 -1 -41 -18 -133 -144 l-105 -144 -40 56 c-133 186
-168 227 -197 233 -16 4 -29 4 -29 0z"/>
<path d="M332 1238 l3 -333 22 -3 23 -3 2 291 3 291 228 -291 c159 -203 234
-290 245 -288 15 3 17 35 20 336 l2 332 -25 0 -25 0 -2 -292 -3 -293 -20 32
c-11 17 -112 149 -225 292 -161 205 -210 261 -227 261 l-23 0 2 -332z"/>
<path d="M1110 1550 c0 -19 7 -20 215 -20 208 0 215 1 215 20 0 19 -7 20 -215
20 -208 0 -215 -1 -215 -20z"/>
<path d="M2210 1550 c0 -19 7 -20 120 -20 l120 0 0 -316 0 -315 21 3 c21 3 21
4 20 316 l-2 312 125 0 c119 0 126 1 126 20 0 19 -7 20 -265 20 -258 0 -265
-1 -265 -20z"/>
<path d="M1110 1244 l0 -24 215 0 215 0 0 25 0 24 -215 -1 -215 -1 0 -23z"/>
<path d="M1110 928 l0 -23 215 0 215 0 0 23 0 22 -215 0 -215 0 0 -22z"/>
<path d="M1370 635 c0 -149 2 -175 15 -175 13 0 15 26 15 175 0 149 -2 175
-15 175 -13 0 -15 -26 -15 -175z"/>
<path d="M2410 733 l0 -76 -26 24 c-33 31 -112 33 -145 3 -51 -46 -62 -108
-29 -161 39 -65 125 -80 176 -32 l24 22 0 -26 c0 -15 6 -27 13 -27 9 0 12 42
12 175 0 133 -3 175 -12 175 -9 0 -13 -22 -13 -77z m-29 -82 c38 -39 39 -87 3
-130 -22 -26 -33 -31 -70 -31 -60 0 -94 34 -94 95 0 59 34 95 90 95 33 0 48
-6 71 -29z"/>
<path d="M330 625 l0 -166 108 3 c131 4 140 22 12 26 l-90 3 0 149 c0 127 -2
150 -15 150 -13 0 -15 -25 -15 -165z"/>
<path d="M1685 774 c-71 -36 -101 -92 -92 -169 12 -107 129 -174 231 -131 33
14 53 33 43 42 -3 3 -19 -2 -36 -10 -16 -9 -52 -16 -79 -16 -159 0 -184 229
-30 271 40 10 111 -2 123 -21 9 -15 25 -12 25 4 0 18 -71 46 -118 46 -20 0
-50 -7 -67 -16z"/>
<path d="M622 690 c-87 -53 -72 -189 24 -220 58 -19 156 11 128 40 -8 8 -14 7
-24 -5 -21 -25 -102 -20 -128 8 -12 13 -22 28 -22 33 0 6 45 18 100 29 62 11
100 22 100 30 0 21 -44 79 -70 92 -36 18 -70 16 -108 -7z m98 -15 c29 -15 57
-52 46 -62 -3 -3 -44 -13 -91 -23 -83 -17 -85 -17 -85 2 0 36 29 77 63 87 17
5 33 10 35 10 2 1 16 -6 32 -14z"/>
<path d="M820 703 c-1 -21 104 -243 115 -243 13 0 16 7 81 153 28 64 38 97 30
97 -7 0 -35 -49 -61 -110 l-48 -110 -48 107 c-41 93 -69 135 -69 106z"/>
<path d="M1140 698 c-13 -7 -35 -29 -48 -48 -43 -63 -13 -151 61 -179 40 -15
91 -9 121 14 26 20 11 39 -17 20 -34 -24 -99 -19 -131 10 -14 13 -26 28 -26
32 0 5 45 17 100 27 94 17 100 19 100 42 0 13 -12 38 -27 54 -32 36 -93 49
-133 28z m127 -54 c9 -14 13 -27 10 -31 -3 -3 -45 -13 -92 -23 l-85 -17 0 26
c0 83 121 115 167 45z"/>
<path d="M1973 696 c-89 -40 -81 -195 12 -226 50 -16 96 -6 131 31 25 26 29
38 29 84 0 47 -4 59 -30 84 -37 37 -95 48 -142 27z m122 -41 c19 -18 25 -35
25 -70 0 -61 -32 -95 -89 -95 -61 0 -96 35 -96 95 0 39 5 51 28 71 39 33 99
33 132 -1z"/>
<path d="M2571 698 c-64 -34 -86 -130 -43 -187 38 -51 127 -64 178 -27 14 11
16 18 8 26 -8 8 -14 7 -24 -5 -8 -10 -29 -15 -60 -15 -38 0 -53 5 -74 27 -15
14 -23 30 -19 33 4 4 51 15 103 25 52 10 96 19 98 20 7 6 -27 71 -46 88 -26
24 -90 32 -121 15z m126 -54 c9 -14 13 -27 10 -31 -3 -3 -45 -13 -92 -23 l-85
-17 0 21 c1 86 120 122 167 50z"/>
</g>
</svg>
